<?xml version="1.0" encoding="UTF-8"?> <svg xmlns="http://www.w3.org/2000/svg" xmlns:xlink="http://www.w3.org/1999/xlink" width="100px" height="100px" viewBox="0 0 100 100"> <!-- Generator: Sketch 51.2 (57519) - http://www.bohemiancoding.com/sketch --> <title>all-inclusive-bills</title> <desc>Created with Sketch.</desc> <defs> <polygon id="path-1" points="0 0.031547619 99.9684524 0.031547619 99.9684524 99.9880952 0 99.9880952"></polygon> </defs> <g id="all-inclusive-bills" stroke="none" stroke-width="1" fill="none" fill-rule="evenodd"> <g id="Border"> <mask id="mask-2" fill="white"> <use xlink:href="#path-1"></use> </mask> <g id="Box"></g> </g> <path d="M55.7630351,30.8651438 L32.3055272,30.8651438 C25.9189457,30.8651438 20.723099,36.0609904 20.723099,42.4472524 L24.8790096,42.4472524 C24.8790096,38.3526837 28.2109585,35.0210543 32.3055272,35.0210543 L55.7630351,35.0210543 L55.7630351,30.8651438 Z" id="Fill-192" fill="#191937"></path> <polygon id="Fill-193" fill="#191937" points="20.7233227 58.4555911 24.8792332 58.4555911 24.8792332 44.5028754 20.7233227 44.5028754"></polygon> <polygon id="Fill-194" fill="#191937" points="34.070607 86.8031949 38.2261981 86.8031949 38.2261981 60.2396166 34.070607 60.2396166"></polygon> <polygon id="Fill-195" fill="#191937" points="26.384984 86.8031949 30.5408946 86.8031949 30.5408946 60.2396166 26.384984 60.2396166"></polygon> <path d="M32.3055591,18.1620128 C34.2582748,18.1620128 35.8467732,19.7508307 35.8467732,21.7032268 C35.8467732,23.6553035 34.2582748,25.2438019 32.3055591,25.2438019 C30.3528435,25.2438019 28.7646645,23.6553035 28.7646645,21.7032268 C28.7646645,19.7508307 30.3528435,18.1620128 32.3055591,18.1620128 M32.3055591,29.3997125 C36.5496486,29.3997125 40.0026837,25.9469968 40.0026837,21.7032268 C40.0026837,17.4591374 36.5496486,14.0061022 32.3055591,14.0061022 C28.0614696,14.0061022 24.6084345,17.4591374 24.6084345,21.7032268 C24.6084345,25.9469968 28.0614696,29.3997125 32.3055591,29.3997125" id="Fill-196" fill="#191937"></path> <path d="M56.7695527,48.0744728 C56.7695527,50.0469968 58.3689137,51.6463578 60.3417572,51.6463578 C62.3139617,51.6463578 63.9130032,50.0469968 63.9130032,48.0744728 C63.9130032,46.1019489 62.3139617,44.5029073 60.3417572,44.5029073 C58.3689137,44.5029073 56.7695527,46.1019489 56.7695527,48.0744728" id="Fill-197" fill="#191937"></path> <path d="M80.4073482,67.5196166 L75.4536741,67.5196166 C74.0009585,66.0014058 72.2942492,64.7292013 70.4031949,63.7694569 C70.9402556,62.3736102 72.2916933,61.3784026 73.8744409,61.3784026 L73.8744409,57.2228115 C70.5111821,57.2228115 67.6348243,59.3423003 66.5070288,62.3154633 C65.0683706,61.9576358 63.5645367,61.766901 62.0169329,61.766901 C56.9198083,61.766901 52.2964856,63.8279233 48.9325879,67.1592332 C47.6715655,66.5624281 46.7952077,65.2815974 46.7952077,63.7966134 L42.6392971,63.7966134 C42.6392971,66.5863898 44.098722,69.0407029 46.2929712,70.4407029 C47.5083067,71.2157827 48.9479233,71.6684984 50.4920128,71.6736102 C50.500639,71.6736102 50.5086262,71.6742492 50.5172524,71.6742492 L50.5172524,71.6423003 C53.158147,68.1707348 57.328115,65.9228115 62.0169329,65.9228115 C66.7207668,65.9228115 70.9025559,68.1841534 73.5421725,71.6742492 L73.5428115,71.6742492 L73.5428115,71.6755272 L76.4498403,71.6755272 L76.4498403,73.7470927 L73.5428115,73.7470927 L73.541853,73.7470927 C70.9022364,77.2371885 66.7201278,79.4982109 62.0166134,79.4982109 C57.3127796,79.4982109 53.1309904,77.2371885 50.4913738,73.7470927 L45.5734824,73.7470927 C47.2389776,76.8831949 49.7753994,79.4883067 52.858147,81.2391054 L52.858147,86.8030032 L57.013738,86.8030032 L57.013738,82.9691374 C58.6063898,83.4141853 60.2837061,83.6541214 62.0166134,83.6541214 C63.7884984,83.6541214 65.5038339,83.4049201 67.1284345,82.9397444 L67.1284345,86.8030032 L71.284345,86.8030032 L71.284345,81.1755272 C72.8261981,80.2857508 74.228754,79.1809585 75.4520767,77.9030032 L76.4498403,77.9030032 L76.4498403,77.9033227 L80.6057508,77.9033227 L80.6057508,67.5196166 L80.4073482,67.5196166 Z" id="Fill-198" fill="#191937"></path> </g> </svg> 