<?xml version="1.0" encoding="UTF-8"?> <svg xmlns="http://www.w3.org/2000/svg" xmlns:xlink="http://www.w3.org/1999/xlink" width="100px" height="100px" viewBox="0 0 100 100"> <!-- Generator: Sketch 51.2 (57519) - http://www.bohemiancoding.com/sketch --> <title>telephone</title> <desc>Created with Sketch.</desc> <defs> <polygon id="path-1" points="0 0.031547619 99.9684524 0.031547619 99.9684524 99.9880952 0 99.9880952"></polygon> </defs> <g id="telephone" stroke="none" stroke-width="1" fill="none" fill-rule="evenodd"> <g id="Border"> <mask id="mask-2" fill="white"> <use xlink:href="#path-1"></use> </mask> <g id="Box"></g> </g> <g id="Group-15" transform="translate(17.000000, 18.000000)" fill="#191937"> <path d="M32.4847284,28.6138019 L28.3288179,28.6138019 C28.3288179,24.5192332 24.9971885,21.1876038 20.9026198,21.1876038 C16.8080511,21.1876038 13.4764217,24.5192332 13.4764217,28.6138019 L9.32051118,28.6138019 C9.32051118,22.2275399 14.5160383,17.0316933 20.9026198,17.0316933 C27.2892013,17.0316933 32.4847284,22.2275399 32.4847284,28.6138019" id="Fill-96"></path> <path d="M60.3888498,22.5872204 L56.2329393,22.5872204 C56.2329393,20.7159744 54.7105751,19.1932907 52.8383706,19.1932907 C50.9671246,19.1932907 49.4444409,20.7159744 49.4444409,22.5872204 L45.2885304,22.5872204 C45.2885304,18.4242812 48.6757508,15.0373802 52.8383706,15.0373802 C57.0016294,15.0373802 60.3888498,18.4242812 60.3888498,22.5872204" id="Fill-97"></path> <path d="M20.9026518,4.31955272 C18.9502556,4.31955272 17.3620767,5.90805112 17.3620767,7.8601278 C17.3620767,9.81252396 18.9502556,11.4013419 20.9026518,11.4013419 C22.8550479,11.4013419 24.4438658,9.81252396 24.4438658,7.8601278 C24.4438658,5.90805112 22.8550479,4.31955272 20.9026518,4.31955272 M20.9026518,15.5572524 C16.6588818,15.5572524 13.2061661,12.1042173 13.2061661,7.8601278 C13.2061661,3.61635783 16.6588818,0.163642173 20.9026518,0.163642173 C25.1470607,0.163642173 28.5997764,3.61635783 28.5997764,7.8601278 C28.5997764,12.1042173 25.1470607,15.5572524 20.9026518,15.5572524" id="Fill-98"></path> <polygon id="Fill-99" points="0.458466454 63.7619808 66.6731629 63.7619808 66.6731629 59.6060703 0.458466454 59.6060703"></polygon> <polygon id="Fill-100" points="0.458466454 35.384345 66.6731629 35.384345 66.6731629 31.2284345 0.458466454 31.2284345"></polygon> <polygon id="Fill-101" points="45.4370607 28.3555911 60.2683706 28.3555911 60.2683706 24.1996805 45.4370607 24.1996805"></polygon> </g> </g> </svg> 